<svg width="48" height="48" viewBox="0 0 48 48" fill="none" xmlns="http://www.w3.org/2000/svg">
<path d="M1.44001 21.12C0.983047 21.12 0.549127 20.8992 0.278407 20.5306C0.0518469 20.2215 -0.0422331 19.8413 0.0172869 19.4611C0.0768069 19.081 0.278407 18.7469 0.589447 18.5184L22.1894 2.67842C22.4371 2.49602 22.7309 2.40002 23.04 2.40002C23.3491 2.40002 23.6429 2.49602 23.8925 2.67842L45.4925 18.5184C46.1319 18.9869 46.272 19.8912 45.8035 20.5306C45.5328 20.8992 45.0989 21.12 44.6419 21.12C44.3328 21.12 44.0391 21.024 43.7895 20.8397L23.04 5.62562L2.29057 20.8416C2.04289 21.024 1.74721 21.12 1.44001 21.12Z" fill="#FEBA02"/>
<path fill-rule="evenodd" clip-rule="evenodd" d="M0 32.4326C0 36.0058 2.90688 38.9126 6.48 38.9126C10.0531 38.9126 12.96 36.0058 12.96 32.4326C12.96 28.8595 10.0531 25.9526 6.48 25.9526C2.90688 25.9526 0 28.8595 0 32.4326ZM2.88 32.4326C2.88 30.4474 4.49472 28.8326 6.48 28.8326C8.46528 28.8326 10.08 30.4474 10.08 32.4326C10.08 34.4179 8.46528 36.0326 6.48 36.0326C4.49472 36.0326 2.88 34.4179 2.88 32.4326Z" fill="#FEBA02"/>
<path fill-rule="evenodd" clip-rule="evenodd" d="M33.12 32.4326C33.12 36.0058 36.0269 38.9126 39.6 38.9126C43.1731 38.9126 46.08 36.0058 46.08 32.4326C46.08 28.8595 43.1731 25.9526 39.6 25.9526C36.0269 25.9526 33.12 28.8595 33.12 32.4326ZM36 32.4326C36 30.4474 37.6147 28.8326 39.6 28.8326C41.5853 28.8326 43.2 30.4474 43.2 32.4326C43.2 34.4179 41.5853 36.0326 39.6 36.0326C37.6147 36.0326 36 34.4179 36 32.4326Z" fill="#FEBA02"/>
<path fill-rule="evenodd" clip-rule="evenodd" d="M29.6621 44.7264C29.8886 45.2564 30.409 45.6 30.9869 45.6V45.602H31.6512C32.2291 45.602 32.7494 45.2583 32.976 44.7264C33.7306 42.9581 35.1302 41.5892 36.9139 40.873C37.7779 40.5274 38.6803 40.3508 39.5981 40.3508C40.5677 40.3508 41.5181 40.5466 42.4243 40.9325C42.9062 41.138 43.369 41.3991 43.799 41.7082C44.0448 41.8848 44.3347 41.977 44.6362 41.977C45.0989 41.977 45.5366 41.7543 45.8074 41.378C46.2701 40.7328 46.1222 39.8304 45.4771 39.3677C44.8762 38.9376 44.231 38.5728 43.5552 38.2848C42.2899 37.7453 40.9574 37.4708 39.5981 37.4708C38.3136 37.4708 37.0502 37.7165 35.8426 38.2023C34.0051 38.9396 32.4346 40.1972 31.319 41.8023C30.2458 40.2567 28.7424 39.026 26.9952 38.281C26.7686 38.1831 26.5382 38.0967 26.3078 38.016C28.224 36.8852 29.52 34.7943 29.52 32.4346C29.52 28.8615 26.6131 25.9546 23.04 25.9546C19.4669 25.9546 16.56 28.8615 16.56 32.4346C16.56 34.8077 17.8483 36.8909 19.7626 38.0199C19.6013 38.0756 19.44 38.137 19.2806 38.2004C17.4432 38.9376 15.8726 40.1952 14.7571 41.8023C14.7283 41.7581 14.6976 41.7159 14.6669 41.6737L14.6669 41.6736C12.7795 39.0471 9.71521 37.4784 6.46848 37.4784C4.35073 37.4784 2.32128 38.1312 0.599045 39.3696C-0.0460754 39.8324 -0.193915 40.7348 0.268805 41.378C0.537605 41.7543 0.975365 41.9789 1.43808 41.9789C1.74144 41.9789 2.03328 41.8848 2.27904 41.7082C3.50976 40.825 4.95744 40.3584 6.4704 40.3584C8.78976 40.3584 10.9805 41.4778 12.3283 43.3536C12.6355 43.7818 12.8966 44.2426 13.1021 44.7264C13.3286 45.2583 13.849 45.602 14.4269 45.602H15.0912C15.6691 45.602 16.1894 45.2583 16.416 44.7264C17.1706 42.9581 18.5702 41.5892 20.3539 40.8711C21.2179 40.5236 22.1222 40.3469 23.04 40.3469C24.0096 40.3469 24.96 40.5428 25.8643 40.9287C27.5808 41.6621 28.9286 43.01 29.6621 44.7264ZM19.44 32.4327C19.44 30.4474 21.0547 28.8327 23.04 28.8327C25.0253 28.8327 26.64 30.4474 26.64 32.4327C26.64 34.418 25.0253 36.0327 23.04 36.0327C21.0547 36.0327 19.44 34.418 19.44 32.4327Z" fill="#FEBA02"/>
</svg>
