<svg width="48" height="48" viewBox="0 0 48 48" fill="none" xmlns="http://www.w3.org/2000/svg">
<path fill-rule="evenodd" clip-rule="evenodd" d="M27 7.5C27 11.9248 20.8495 15 13.5 15C6.15045 15 0 11.9248 0 7.5C0 3.07523 6.15045 0 13.5 0C20.8495 0 27 3.07523 27 7.5ZM3 7.5C3 9.70264 7.59472 12 13.5 12C19.4053 12 24 9.70263 24 7.5C24 5.29737 19.4053 3 13.5 3C7.59472 3 3 5.29736 3 7.5Z" fill="#FEBA02"/>
<path d="M24 13.5C24 15.7029 19.4059 18 13.5 18C7.59414 18 3 15.7029 3 13.5C3 12.6716 2.32843 12 1.5 12C0.671573 12 0 12.6716 0 13.5C0 17.9251 6.14986 21 13.5 21C20.8501 21 27 17.9251 27 13.5C27 12.6716 26.3284 12 25.5 12C24.6716 12 24 12.6716 24 13.5Z" fill="#FEBA02"/>
<path d="M27 19.5V7.5C27 6.67157 26.3284 6 25.5 6C24.6716 6 24 6.67157 24 7.5V19.5C24 20.3284 24.6716 21 25.5 21C26.3284 21 27 20.3284 27 19.5Z" fill="#FEBA02"/>
<path d="M0 7.5V37.5C0 41.9251 6.14988 45 13.5 45C15.1093 45.0026 16.7171 44.8432 18.2968 44.5243C19.1088 44.3604 19.6343 43.5693 19.4703 42.7572C19.3064 41.9452 18.5153 41.4197 17.7032 41.5837C16.3205 41.8628 14.9131 42.0022 13.5024 42C7.59415 42 3 39.7029 3 37.5V7.5C3 6.67157 2.32843 6 1.5 6C0.671573 6 0 6.67157 0 7.5Z" fill="#FEBA02"/>
<path d="M0 31.5C0 35.9251 6.14988 39 13.5 39C15.1093 39.0026 16.7171 38.8432 18.2968 38.5243C19.1088 38.3604 19.6343 37.5693 19.4703 36.7572C19.3064 35.9452 18.5153 35.4197 17.7032 35.5837C16.3205 35.8628 14.9131 36.0022 13.5024 36C7.59415 36 3 33.7029 3 31.5C3 30.6716 2.32843 30 1.5 30C0.671573 30 0 30.6716 0 31.5Z" fill="#FEBA02"/>
<path d="M0 25.5C0 29.9251 6.14988 33 13.5 33C15.1093 33.0026 16.7171 32.8432 18.2968 32.5243C19.1088 32.3604 19.6343 31.5693 19.4703 30.7572C19.3064 29.9452 18.5153 29.4197 17.7032 29.5837C16.3205 29.8628 14.9131 30.0022 13.5024 30C7.59415 30 3 27.7029 3 25.5C3 24.6716 2.32843 24 1.5 24C0.671573 24 0 24.6716 0 25.5Z" fill="#FEBA02"/>
<path d="M0 19.5C0 23.9251 6.14988 27 13.5 27C15.1093 27.0026 16.7171 26.8432 18.2968 26.5243C19.1088 26.3604 19.6343 25.5693 19.4703 24.7572C19.3064 23.9452 18.5153 23.4197 17.7032 23.5837C16.3205 23.8628 14.9131 24.0022 13.5024 24C7.59415 24 3 21.7029 3 19.5C3 18.6716 2.32843 18 1.5 18C0.671573 18 0 18.6716 0 19.5Z" fill="#FEBA02"/>
<path fill-rule="evenodd" clip-rule="evenodd" d="M48 28.5C48 32.9248 41.8496 36 34.5 36C27.1504 36 21 32.9248 21 28.5C21 24.0752 27.1504 21 34.5 21C41.8496 21 48 24.0752 48 28.5ZM24 28.5C24 30.7027 28.5947 33 34.5 33C40.4053 33 45 30.7027 45 28.5C45 26.2973 40.4053 24 34.5 24C28.5947 24 24 26.2973 24 28.5Z" fill="#FEBA02"/>
<path d="M21 28.5V40.5C21 44.9251 27.1499 48 34.5 48C41.8501 48 48 44.9251 48 40.5V28.5C48 27.6716 47.3284 27 46.5 27C45.6716 27 45 27.6716 45 28.5V40.5C45 42.7029 40.4059 45 34.5 45C28.5941 45 24 42.7029 24 40.5V28.5C24 27.6716 23.3284 27 22.5 27C21.6716 27 21 27.6716 21 28.5Z" fill="#FEBA02"/>
<path d="M45 34.5C45 36.7029 40.4059 39 34.5 39C28.5941 39 24 36.7029 24 34.5C24 33.6716 23.3284 33 22.5 33C21.6716 33 21 33.6716 21 34.5C21 38.9251 27.1499 42 34.5 42C41.8501 42 48 38.9251 48 34.5C48 33.6716 47.3284 33 46.5 33C45.6716 33 45 33.6716 45 34.5Z" fill="#FEBA02"/>
</svg>
