<svg width="48" height="48" viewBox="0 0 48 48" fill="none" xmlns="http://www.w3.org/2000/svg">
<path fill-rule="evenodd" clip-rule="evenodd" d="M2.24861 45.7477C2.51076 46.0099 2.85784 46.1539 3.22892 46.1539C3.432 46.1539 3.63692 46.1077 3.82338 46.021L15.1089 40.6468C18.2363 42.4376 21.7809 43.381 25.3846 43.381C32.6345 43.381 39.24 39.7182 43.0541 33.5834C45.9785 28.8776 46.8941 23.3096 45.6332 17.9003C44.3723 12.4911 41.0861 7.90158 36.3821 4.97727C33.0868 2.92988 29.2948 1.84619 25.416 1.84619V2.5385L25.3532 1.84619C13.9329 1.84619 4.6283 11.1379 4.61169 22.5582C4.608 26.184 5.55323 29.7471 7.35138 32.8893L1.97723 44.1748C1.72615 44.7028 1.83507 45.3342 2.24861 45.7477ZM7.38092 22.5619C7.39569 12.6665 15.4578 4.61542 25.3532 4.61542C25.3532 4.61542 25.4086 4.61542 25.416 4.61727C28.7778 4.61727 32.064 5.55511 34.92 7.33111C43.3477 12.5705 45.9415 23.6917 40.7022 32.1213C37.3957 37.4382 31.6708 40.6117 25.3846 40.6117C22.0375 40.6117 18.7625 39.6757 15.912 37.9034C15.6923 37.765 15.4394 37.693 15.1809 37.693C14.976 37.693 14.7692 37.7391 14.5865 37.8277L6.15507 41.8431L10.1686 33.4117C10.3735 32.9834 10.3458 32.4887 10.0948 32.0843C8.31507 29.2247 7.37538 25.9311 7.38092 22.5619Z" fill="#FEBA02"/>
<path d="M29.8523 28.6246C29.3132 28.6246 28.8203 28.3089 28.5951 27.8197C28.2757 27.1255 28.5803 26.3021 29.2726 25.9827C30.5428 25.3994 31.3772 24.1698 31.4529 22.7741C31.4529 22.5397 31.4234 22.2443 31.3569 21.9286C30.864 22.3587 30.2252 22.6154 29.5477 22.6154C28.0209 22.6154 26.7785 21.3729 26.7785 19.8461C26.7785 18.4874 27.7458 17.3483 29.088 17.1231C29.2061 17.0917 29.3188 17.0769 29.4314 17.0769C29.4425 17.0769 29.4665 17.0788 29.4886 17.0788C29.5071 17.0769 29.5274 17.0769 29.5477 17.0769C29.6197 17.0769 29.688 17.0843 29.7563 17.0935C32.6972 17.3224 34.2203 20.1618 34.2203 22.8498C34.0874 25.3329 32.6363 27.4818 30.432 28.4972C30.2474 28.5821 30.0517 28.6246 29.8523 28.6246Z" fill="#FEBA02"/>
<path d="M20.16 28.6246C19.6209 28.6246 19.128 28.3089 18.9028 27.8197C18.5834 27.1255 18.888 26.3021 19.5803 25.9827C20.8486 25.3994 21.6849 24.1698 21.7606 22.7741C21.7606 22.5397 21.7311 22.2443 21.6646 21.9286C21.1717 22.3587 20.5329 22.6154 19.8554 22.6154C18.3286 22.6154 17.0862 21.3729 17.0862 19.8461C17.0862 18.4874 18.0554 17.3483 19.3957 17.1231C19.512 17.0917 19.6265 17.0769 19.7372 17.0769C19.7483 17.0769 19.7723 17.0788 19.7945 17.0788C19.8148 17.0769 19.8351 17.0769 19.8535 17.0769C19.9255 17.0769 19.9938 17.0843 20.0622 17.0935C23.0012 17.3224 24.5262 20.1618 24.5262 22.8498C24.3932 25.3329 22.9422 27.4837 20.7378 28.4972C20.5551 28.5821 20.3612 28.6246 20.16 28.6246Z" fill="#FEBA02"/>
</svg>
